<svg width="20" height="20" viewBox="0 0 20 20" fill="none" xmlns="http://www.w3.org/2000/svg">
<path d="M14.5 2H6.16667C3.86548 2 2 3.86548 2 6.16667V14.5C2 16.8012 3.86548 18.6667 6.16667 18.6667H14.5C16.8012 18.6667 18.6667 16.8012 18.6667 14.5V6.16667C18.6667 3.86548 16.8012 2 14.5 2Z" stroke="white" stroke-linecap="round" stroke-linejoin="round"/>
<path d="M13.6306 9.84439C13.7335 10.5379 13.615 11.2462 13.2921 11.8686C12.9692 12.4909 12.4582 12.9956 11.832 13.3108C11.2057 13.626 10.496 13.7357 9.80377 13.6243C9.11155 13.5129 8.47208 13.1861 7.97631 12.6904C7.48055 12.1946 7.15373 11.5551 7.04234 10.8629C6.93095 10.1707 7.04067 9.46097 7.35589 8.8347C7.6711 8.20844 8.17577 7.69751 8.7981 7.37459C9.42043 7.05168 10.1287 6.93322 10.8223 7.03606C11.5297 7.14096 12.1847 7.47061 12.6904 7.97631C13.1961 8.48202 13.5257 9.13696 13.6306 9.84439Z" stroke="white" stroke-linecap="round" stroke-linejoin="round"/>
<path d="M14.5833 5.41675H14.5933" stroke="white" stroke-linecap="round" stroke-linejoin="round"/>
</svg>
