<svg width="20" height="20" viewBox="0 0 20 20" fill="none" xmlns="http://www.w3.org/2000/svg">
<circle cx="10" cy="10" r="9.5" stroke="white"/>
<path d="M10 0.666748V19.3334" stroke="white"/>
<path d="M0.666748 10L19.3334 10" stroke="white"/>
<path d="M11.6068 0.975659C15.7685 6.27226 15.7685 13.7279 11.6068 19.0245L12.3932 19.6423C16.8397 13.9831 16.8397 6.01705 12.3932 0.357837L11.6068 0.975659Z" fill="white"/>
<path d="M9.05991 0.975659C4.89829 6.27226 4.89829 13.7279 9.05991 19.0245L8.27359 19.6423C3.82706 13.9831 3.82706 6.01705 8.27359 0.357837L9.05991 0.975659Z" fill="white"/>
<path d="M15.6678 17.707C12.4355 14.8338 7.56453 14.8338 4.33218 17.707L3.66782 16.9595C7.27905 13.7496 12.7209 13.7496 16.3322 16.9595L15.6678 17.707Z" fill="white"/>
<path d="M15.6678 2.29304C12.4355 5.16624 7.56453 5.16624 4.33218 2.29304L3.66782 3.04045C7.27905 6.25044 12.7209 6.25044 16.3322 3.04045L15.6678 2.29304Z" fill="white"/>
</svg>
