<svg width="20" height="20" viewBox="0 0 20 20" fill="none" xmlns="http://www.w3.org/2000/svg">
<path d="M19.0734 14.0999V16.5999C19.0744 16.832 19.0268 17.0617 18.9339 17.2744C18.8409 17.487 18.7045 17.6779 18.5335 17.8348C18.3625 17.9917 18.1606 18.1112 17.9407 18.1855C17.7209 18.2599 17.4879 18.2875 17.2568 18.2666C14.6925 17.988 12.2293 17.1117 10.0651 15.7083C8.05162 14.4288 6.34454 12.7217 5.0651 10.7083C3.65675 8.53426 2.7803 6.05908 2.50676 3.48325C2.48594 3.25281 2.51333 3.02055 2.58718 2.80127C2.66104 2.58199 2.77974 2.38049 2.93574 2.2096C3.09173 2.03871 3.2816 1.90218 3.49326 1.80869C3.70491 1.7152 3.93371 1.6668 4.1651 1.66658H6.6651C7.06952 1.6626 7.46159 1.80582 7.76823 2.06953C8.07487 2.33324 8.27516 2.69946 8.33176 3.09992C8.43728 3.89997 8.63297 4.68552 8.9151 5.44158C9.02722 5.73985 9.05148 6.06401 8.98502 6.37565C8.91856 6.68729 8.76415 6.97334 8.5401 7.19992L7.48176 8.25825C8.66806 10.3445 10.3955 12.072 12.4818 13.2583L13.5401 12.1999C13.7667 11.9759 14.0527 11.8215 14.3644 11.755C14.676 11.6885 15.0002 11.7128 15.2984 11.8249C16.0545 12.107 16.84 12.3027 17.6401 12.4083C18.0449 12.4654 18.4146 12.6693 18.6789 12.9812C18.9432 13.2931 19.0836 13.6912 19.0734 14.0999Z" stroke="white" stroke-linecap="round" stroke-linejoin="round"/>
</svg>
