<svg width="21" height="20" viewBox="0 0 21 20" fill="none" xmlns="http://www.w3.org/2000/svg">
<g clip-path="url(#clip0_643:190)">
<path d="M19.5006 2.50008C18.7026 3.06298 17.819 3.4935 16.8839 3.77508C16.382 3.198 15.715 2.78899 14.9731 2.60335C14.2312 2.41771 13.4501 2.46441 12.7356 2.73712C12.0211 3.00984 11.4076 3.49541 10.9781 4.12818C10.5485 4.76094 10.3236 5.51036 10.3339 6.27508V7.10841C8.86943 7.14639 7.4183 6.82159 6.10974 6.16295C4.80119 5.50431 3.67583 4.53228 2.8339 3.33341C2.8339 3.33341 -0.49943 10.8334 7.00057 14.1667C5.28434 15.3317 3.23987 15.9159 1.16724 15.8334C8.66724 20.0001 17.8339 15.8334 17.8339 6.25008C17.8331 6.01796 17.8108 5.78641 17.7672 5.55841C18.6177 4.71966 19.2179 3.66067 19.5006 2.50008V2.50008Z" stroke="white" stroke-linecap="round" stroke-linejoin="round"/>
</g>
<defs>
<clipPath id="clip0_643:190">
<rect width="20" height="20" fill="white" transform="translate(0.333984)"/>
</clipPath>
</defs>
</svg>
